Coordinates
version=1
nRows=20
nColumns=38
inDegrees=no

Units are S.I. units (second, meters, Newtons, ...)
If the header above contains a line with 'inDegrees', this indicates whether rotational values are in degrees (yes) or radians (no).

endheader
time	pelvis_tilt	pelvis_list	pelvis_rotation	pelvis_tx	pelvis_ty	pelvis_tz	hip_flexion_r	hip_adduction_r	hip_rotation_r	knee_angle_r	ankle_angle_r	subtalar_angle_r	mtp_angle_r	hip_flexion_l	hip_adduction_l	hip_rotation_l	knee_angle_l	ankle_angle_l	subtalar_angle_l	mtp_angle_l	lumbar_extension	lumbar_bending	lumbar_rotation	arm_flex_r	arm_add_r	arm_rot_r	elbow_flex_r	pro_sup_r	wrist_flex_r	wrist_dev_r	arm_flex_l	arm_add_l	arm_rot_l	elbow_flex_l	pro_sup_l	wrist_flex_l	wrist_dev_l
1.97	-2.67142	1.4738	-1.99515	0.536443	1.37762	1.06127	-0.0822287	-0.193584	-0.00741825	0.959652	-0.698132	0	0	0.13667	-0.031199	-0.272664	0.434024	-0.271749	0	0	-0.286419	-0.0520435	0.173419	0.122094	-0.527503	1.00463	0.684537	0.609588	0	0	0.030823	-0.361778	0.563985	0.727079	0.969489	0	0
1.98	-2.72299	1.46967	-1.94529	0.533459	1.38675	1.06309	-0.0660022	-0.19054	0.00629966	0.99228	-0.698132	0	0	0.117981	-0.0324602	-0.28732	0.434927	-0.264103	0	0	-0.295574	-0.047574	0.174468	0.122716	-0.536283	1.00081	0.695975	0.609512	0	0	0.0343919	-0.361391	0.568874	0.729574	0.965618	0	0
1.99	-2.76393	1.46747	-1.90481	0.530468	1.39567	1.06469	-0.0474247	-0.18562	0.0195954	1.02301	-0.698132	0	0	0.102799	-0.0344695	-0.299965	0.434898	-0.260012	0	0	-0.302091	-0.0429562	0.173791	0.124225	-0.543174	0.998253	0.704519	0.609844	0	0	0.0374641	-0.36089	0.572673	0.731105	0.961918	0	0
2	-2.80658	1.4647	-1.86289	0.52772	1.40465	1.06639	-0.0304534	-0.178993	0.0319354	1.04984	-0.698132	0	0	0.0859182	-0.0358873	-0.303407	0.429601	-0.257885	0	0	-0.30876	-0.0383248	0.173167	0.126028	-0.549466	0.996525	0.712486	0.611117	0	0	0.0401207	-0.360671	0.576258	0.732701	0.957925	0	0
2.01	-2.84184	1.46227	-1.82769	0.525214	1.41347	1.0682	-0.0133201	-0.171761	0.042848	1.074	-0.698132	0	0	0.0709274	-0.0385646	-0.30781	0.425431	-0.25881	0	0	-0.315152	-0.0344171	0.171503	0.128545	-0.553845	0.994024	0.718445	0.612039	0	0	0.0429364	-0.361062	0.57928	0.734396	0.953526	0	0
2.02	-2.87494	1.46015	-1.79456	0.522712	1.42235	1.06994	0.00366161	-0.16411	0.0526702	1.09582	-0.698132	0	0	0.0563398	-0.0408596	-0.309428	0.420655	-0.260032	0	0	-0.320365	-0.0303144	0.169541	0.131479	-0.557705	0.992967	0.723364	0.613456	0	0	0.0449054	-0.361192	0.58117	0.736194	0.949681	0	0
2.03	-2.90561	1.45842	-1.76337	0.520196	1.4312	1.0717	0.0207131	-0.155457	0.0629969	1.11478	-0.698132	0	0	0.0424234	-0.0430754	-0.311466	0.416522	-0.261343	0	0	-0.324932	-0.026129	0.167103	0.134761	-0.560981	0.9927	0.72726	0.615309	0	0	0.046807	-0.361029	0.582689	0.73749	0.946626	0	0
2.04	-2.93508	1.45645	-1.73299	0.517695	1.44011	1.07346	0.0368685	-0.146386	0.0731409	1.13103	-0.679373	0	0	0.0267201	-0.0437883	-0.310522	0.410548	-0.260845	0	0	-0.32949	-0.0218701	0.164351	0.137804	-0.564196	0.992469	0.731315	0.617634	0	0	0.0485513	-0.360802	0.583942	0.738683	0.94378	0	0
2.05	-2.95907	1.455	-1.70695	0.515258	1.44896	1.07525	0.0530075	-0.137542	0.0820849	1.14381	-0.649985	0	0	0.0124441	-0.0455959	-0.31709	0.407687	-0.26053	0	0	-0.333394	-0.0181115	0.160659	0.14111	-0.565692	0.99185	0.733207	0.619595	0	0	0.0507111	-0.360426	0.584902	0.738835	0.941147	0	0
2.06	-2.98394	1.45417	-1.67967	0.512792	1.45788	1.07692	0.0688461	-0.128738	0.0896077	1.15259	-0.616605	0	0	-0.00267427	-0.0460892	-0.319585	0.40116	-0.259673	0	0	-0.33611	-0.0137986	0.156663	0.144322	-0.566837	0.991655	0.734296	0.621834	0	0	0.0525289	-0.359292	0.585587	0.737559	0.938573	0	0
2.07	-3.00942	1.45412	-1.65129	0.510359	1.46673	1.0785	0.0845047	-0.120204	0.0950238	1.1572	-0.581386	0	0	-0.0169555	-0.0466486	-0.321109	0.393504	-0.259462	0	0	-0.337951	-0.0091545	0.152401	0.14767	-0.567453	0.991787	0.734465	0.624029	0	0	0.0546958	-0.357643	0.586524	0.734796	0.936689	0	0
2.08	-3.03666	1.45451	-1.62107	0.507936	1.47546	1.08001	0.0999576	-0.111849	0.0990791	1.15817	-0.545221	0	0	-0.0303674	-0.0474866	-0.322208	0.385245	-0.26022	0	0	-0.339483	-0.00415053	0.148308	0.151265	-0.568099	0.992369	0.734237	0.625847	0	0	0.0572932	-0.355347	0.587206	0.731139	0.935098	0	0
2.09	-3.06736	1.45533	-1.58721	0.505483	1.48408	1.08144	0.116127	-0.103363	0.102407	1.15683	-0.509908	0	0	-0.0425037	-0.0489238	-0.322793	0.376986	-0.26205	0	0	-0.340683	0.00146636	0.144225	0.155163	-0.568876	0.993097	0.733716	0.627093	0	0	0.0600316	-0.352453	0.587257	0.726892	0.933377	0	0
2.1	-3.10229	1.45672	-1.54939	0.50309	1.49257	1.0827	0.133599	-0.0949296	0.104835	1.15298	-0.480921	0	0	-0.0529921	-0.0511995	-0.323581	0.369876	-0.263977	0	0	-0.341411	0.0074552	0.140611	0.1591	-0.569852	0.992935	0.733109	0.62658	0	0	0.0627817	-0.349266	0.5868	0.7227	0.932359	0	0
2.11	-3.13667	1.45868	-1.51251	0.500832	1.50087	1.08373	0.151729	-0.0874048	0.105826	1.14547	-0.457844	0	0	-0.0618621	-0.0535123	-0.324132	0.364104	-0.265478	0	0	-0.341728	0.0130029	0.137594	0.163074	-0.571047	0.992794	0.732858	0.625292	0	0	0.0657625	-0.346312	0.586206	0.719066	0.932123	0	0
2.12	3.11336	1.46082	-1.47762	0.498697	1.50909	1.08456	0.16991	-0.0808011	0.105979	1.13436	-0.43843	0	0	-0.0702524	-0.0554715	-0.325178	0.358626	-0.266534	0	0	-0.341897	0.0181083	0.135301	0.167347	-0.572766	0.994001	0.733166	0.624652	0	0	0.0687541	-0.343297	0.585359	0.715613	0.932038	0	0
2.13	3.08313	1.46313	-1.44635	0.496725	1.51725	1.08519	0.188266	-0.0749683	0.105888	1.12052	-0.42201	0	0	-0.0782366	-0.0567673	-0.325818	0.353531	-0.267061	0	0	-0.34192	0.0225	0.13373	0.171898	-0.574729	0.99665	0.733621	0.625008	0	0	0.0716316	-0.340297	0.58426	0.712351	0.932081	0	0
2.14	3.05566	1.46558	-1.41814	0.494902	1.52535	1.0856	0.206374	-0.0696297	0.105295	1.10372	-0.409551	0	0	-0.0857203	-0.0574514	-0.325749	0.349039	-0.26681	0	0	-0.342056	0.0262042	0.132769	0.176889	-0.576647	1.00087	0.733626	0.626294	0	0	0.0746225	-0.337597	0.583318	0.709336	0.932319	0	0
2.15	3.0321	1.46796	-1.39403	0.493223	1.53337	1.0858	0.223624	-0.0650601	0.103658	1.08367	-0.400073	0	0	-0.0928232	-0.0577186	-0.32532	0.345557	-0.265914	0	0	-0.342276	0.0291908	0.131712	0.181921	-0.578497	1.00451	0.733867	0.627084	0	0	0.0772786	-0.335526	0.58232	0.706946	0.932296	0	0
2.16	3.01214	1.47025	-1.3736	0.491638	1.54136	1.08582	0.240002	-0.0613265	0.101778	1.061	-0.389083	0	0	-0.0998266	-0.0574614	-0.324065	0.342333	-0.264439	0	0	-0.342595	0.0317604	0.130537	0.186168	-0.580596	1.00729	0.73543	0.625983	0	0	0.0793434	-0.333508	0.580323	0.705067	0.932327	0	0
